<svg width="167" height="58" viewBox="0 0 167 58" fill="none" xmlns="http://www.w3.org/2000/svg">
<path d="M141 24.9999L126 24.9999" stroke="black" stroke-width="1.5" stroke-linecap="round" stroke-linejoin="round"/>
<path d="M137 20L141.293 24.2929C141.626 24.6262 141.793 24.7929 141.793 25C141.793 25.2071 141.626 25.3738 141.293 25.7071L137 30" stroke="black" stroke-width="1.5" stroke-linecap="round" stroke-linejoin="round"/>
<path d="M23.352 26.64H29.272L28.792 25.36H23.832L23.352 26.64ZM26.28 21.328L28.2 25.84L28.328 26.16L29.96 30H31.48L26.28 18.24L21.08 30H22.6L24.264 26.064L24.392 25.776L26.28 21.328ZM33.9145 24.08H35.7225C36.3945 24.08 36.9758 23.984 37.4665 23.792C37.9678 23.6 38.3572 23.3173 38.6345 22.944C38.9118 22.5707 39.0505 22.1227 39.0505 21.6C39.0505 20.96 38.9118 20.4373 38.6345 20.032C38.3572 19.616 37.9678 19.3067 37.4665 19.104C36.9758 18.9013 36.3945 18.8 35.7225 18.8H32.8425V30H35.8825C36.6078 30 37.2532 29.8827 37.8185 29.648C38.3945 29.4027 38.8478 29.04 39.1785 28.56C39.5198 28.0693 39.6905 27.456 39.6905 26.72C39.6905 26.208 39.5945 25.7653 39.4025 25.392C39.2105 25.0187 38.9385 24.7147 38.5865 24.48C38.2452 24.2347 37.8452 24.0533 37.3865 23.936C36.9278 23.8187 36.4265 23.76 35.8825 23.76H33.9145V24.512H35.8825C36.2452 24.512 36.5758 24.56 36.8745 24.656C37.1732 24.7413 37.4292 24.8747 37.6425 25.056C37.8665 25.2373 38.0372 25.4613 38.1545 25.728C38.2718 25.9947 38.3305 26.2987 38.3305 26.64C38.3305 27.0987 38.2238 27.488 38.0105 27.808C37.8078 28.128 37.5198 28.3733 37.1465 28.544C36.7838 28.7147 36.3625 28.8 35.8825 28.8H34.2025V20H35.7225C36.2878 20 36.7572 20.1493 37.1305 20.448C37.5038 20.736 37.6905 21.1467 37.6905 21.68C37.6905 22.032 37.6052 22.3307 37.4345 22.576C37.2638 22.8213 37.0292 23.008 36.7305 23.136C36.4318 23.264 36.0958 23.328 35.7225 23.328H33.9145V24.08ZM42.5644 24.4C42.5644 23.5573 42.7457 22.8053 43.1084 22.144C43.4817 21.4827 43.9884 20.96 44.6284 20.576C45.2684 20.192 45.9937 20 46.8044 20C47.6257 20 48.351 20.192 48.9804 20.576C49.6204 20.96 50.1217 21.4827 50.4844 22.144C50.8577 22.8053 51.0444 23.5573 51.0444 24.4C51.0444 25.2427 50.8577 25.9947 50.4844 26.656C50.1217 27.3173 49.6204 27.84 48.9804 28.224C48.351 28.608 47.6257 28.8 46.8044 28.8C45.9937 28.8 45.2684 28.608 44.6284 28.224C43.9884 27.84 43.4817 27.3173 43.1084 26.656C42.7457 25.9947 42.5644 25.2427 42.5644 24.4ZM41.1244 24.4C41.1244 25.2107 41.263 25.968 41.5404 26.672C41.8284 27.376 42.2284 27.9893 42.7404 28.512C43.2524 29.024 43.855 29.4293 44.5484 29.728C45.2417 30.016 45.9937 30.16 46.8044 30.16C47.6257 30.16 48.3777 30.016 49.0604 29.728C49.7537 29.4293 50.3564 29.024 50.8684 28.512C51.3804 27.9893 51.775 27.376 52.0524 26.672C52.3404 25.968 52.4844 25.2107 52.4844 24.4C52.4844 23.5787 52.3404 22.8213 52.0524 22.128C51.775 21.424 51.3804 20.816 50.8684 20.304C50.3564 19.7813 49.7537 19.376 49.0604 19.088C48.3777 18.7893 47.6257 18.64 46.8044 18.64C45.9937 18.64 45.2417 18.7893 44.5484 19.088C43.855 19.376 43.2524 19.7813 42.7404 20.304C42.2284 20.816 41.8284 21.424 41.5404 22.128C41.263 22.8213 41.1244 23.5787 41.1244 24.4ZM54.325 18.8V26.32C54.325 26.8747 54.4103 27.3867 54.581 27.856C54.7623 28.3253 55.0183 28.7307 55.349 29.072C55.6903 29.4133 56.0957 29.68 56.565 29.872C57.0343 30.064 57.557 30.16 58.133 30.16C58.709 30.16 59.2317 30.064 59.701 29.872C60.1703 29.68 60.5703 29.4133 60.901 29.072C61.2423 28.7307 61.4983 28.3253 61.669 27.856C61.8503 27.3867 61.941 26.8747 61.941 26.32V18.8H60.581V26.32C60.581 27.088 60.373 27.7067 59.957 28.176C59.541 28.6453 58.933 28.88 58.133 28.88C57.333 28.88 56.725 28.6453 56.309 28.176C55.893 27.7067 55.685 27.088 55.685 26.32V18.8H54.325ZM63.3006 20.08H66.1806V30H67.5406V20.08H70.4206V18.8H63.3006V20.08ZM78.207 22.432L81.855 28.96L85.503 22.432L86.335 30H87.695L86.335 18.24L81.855 26.352L77.375 18.24L76.015 30H77.375L78.207 22.432ZM90.3601 30H96.0081V28.72H90.3601V30ZM90.3601 20.08H96.0081V18.8H90.3601V20.08ZM90.3601 24.56H95.6881V23.28H90.3601V24.56ZM89.6081 18.8V30H90.9681V18.8H89.6081Z" fill="white"/>
<rect x="1.5" y="1.5" width="157" height="47" rx="23.5" stroke="black" stroke-width="3"/>
<g filter="url(#filter0_di_12_10)">
<circle cx="134" cy="25" r="23" fill="#F6B410"/>
</g>
<path d="M144.5 24.9999L122 24.9999" stroke="black" stroke-width="1.5" stroke-linecap="round" stroke-linejoin="round"/>
<path d="M138.5 18L145.216 24.2689C145.583 24.6115 145.767 24.7827 145.767 25C145.767 25.2173 145.583 25.3885 145.216 25.7311L138.5 32" stroke="black" stroke-width="1.5" stroke-linecap="round" stroke-linejoin="round"/>
<defs>
<filter id="filter0_di_12_10" x="111" y="2" width="56" height="56" filterUnits="userSpaceOnUse" color-interpolation-filters="sRGB">
<feFlood flood-opacity="0" result="BackgroundImageFix"/>
<feColorMatrix in="SourceAlpha" type="matrix" values="0 0 0 0 0 0 0 0 0 0 0 0 0 0 0 0 0 0 127 0" result="hardAlpha"/>
<feOffset dx="5" dy="5"/>
<feGaussianBlur stdDeviation="2.5"/>
<feComposite in2="hardAlpha" operator="out"/>
<feColorMatrix type="matrix" values="0 0 0 0 0 0 0 0 0 0 0 0 0 0 0 0 0 0 0.25 0"/>
<feBlend mode="normal" in2="BackgroundImageFix" result="effect1_dropShadow_12_10"/>
<feBlend mode="normal" in="SourceGraphic" in2="effect1_dropShadow_12_10" result="shape"/>
<feColorMatrix in="SourceAlpha" type="matrix" values="0 0 0 0 0 0 0 0 0 0 0 0 0 0 0 0 0 0 127 0" result="hardAlpha"/>
<feOffset dx="6" dy="6"/>
<feGaussianBlur stdDeviation="5"/>
<feComposite in2="hardAlpha" operator="arithmetic" k2="-1" k3="1"/>
<feColorMatrix type="matrix" values="0 0 0 0 0 0 0 0 0 0 0 0 0 0 0 0 0 0 0.5 0"/>
<feBlend mode="normal" in2="shape" result="effect2_innerShadow_12_10"/>
</filter>
</defs>
</svg>
