<svg width="55" height="55" viewBox="0 0 55 55" fill="none" xmlns="http://www.w3.org/2000/svg">
<circle cx="27.5" cy="27.5" r="27.5" fill="black"/>
<path d="M23.4491 43L23.1108 38.263C22.9289 35.7162 24.9459 33.55 27.4991 33.55C30.0524 33.55 32.0694 35.7162 31.8875 38.263L31.5491 43" stroke="white" stroke-width="1.5"/>
<path d="M14.4744 31.1382C13.9978 28.0369 13.7595 26.4863 14.3458 25.1117C14.9321 23.737 16.2329 22.7965 18.8345 20.9154L20.7783 19.51C24.0147 17.17 25.6329 16 27.5 16C29.3671 16 30.9853 17.17 34.2217 19.51L36.1655 20.9154C38.7671 22.7965 40.0679 23.737 40.6542 25.1117C41.2405 26.4863 41.0022 28.0369 40.5256 31.1382L40.1192 33.7827C39.4436 38.179 39.1058 40.3772 37.5291 41.6886C35.9525 43 33.6474 43 29.0374 43H25.9626C21.3525 43 19.0475 43 17.4708 41.6886C15.8942 40.3772 15.5564 38.179 14.8808 33.7827L14.4744 31.1382Z" stroke="white" stroke-width="1.5" stroke-linejoin="round"/>
</svg>
