<svg width="55" height="55" viewBox="0 0 55 55" fill="none" xmlns="http://www.w3.org/2000/svg">
<path d="M55 27.5C55 42.6878 42.6878 55 27.5 55C12.3122 55 0 42.6878 0 27.5C0 12.3122 12.3122 0 27.5 0C42.6878 0 55 12.3122 55 27.5Z" fill="black"/>
<path d="M19.3664 32.2001C17.2442 33.3374 11.68 35.6596 15.069 38.5654C16.7245 39.9848 18.5682 41 20.8863 41H34.1137C36.4318 41 38.2755 39.9848 39.931 38.5654C43.32 35.6596 37.7558 33.3374 35.6336 32.2001C30.6572 29.5333 24.3428 29.5333 19.3664 32.2001Z" stroke="white" stroke-width="1.5" stroke-linecap="round" stroke-linejoin="round"/>
<path d="M34.25 20.075C34.25 23.4301 31.2279 26.15 27.5 26.15C23.7721 26.15 20.75 23.4301 20.75 20.075C20.75 16.7199 23.7721 14 27.5 14C31.2279 14 34.25 16.7199 34.25 20.075Z" stroke="white" stroke-width="1.5"/>
</svg>
