<svg width="55" height="55" viewBox="0 0 55 55" fill="none" xmlns="http://www.w3.org/2000/svg">
<circle cx="27.5" cy="27.5" r="27.5" fill="black"/>
<path d="M22.775 31.0526H32.225M22.775 23.9474H27.5" stroke="white" stroke-width="1.5" stroke-linecap="round" stroke-linejoin="round"/>
<path d="M30.4303 40.1339C36.0774 39.7388 40.5755 34.9367 40.9457 28.9081C41.0181 27.7283 41.0181 26.5066 40.9457 25.3268C40.5755 19.2982 36.0774 14.4961 30.4303 14.101C28.5038 13.9662 26.4923 13.9665 24.5697 14.101C18.9226 14.4961 14.4245 19.2982 14.0543 25.3268C13.9819 26.5066 13.9819 27.7283 14.0543 28.9081C14.1891 31.1038 15.1116 33.1368 16.1977 34.8534C16.8283 36.0552 16.4121 37.5551 15.7553 38.8653C15.2817 39.81 15.0449 40.2823 15.235 40.6236C15.4252 40.9648 15.8498 40.9757 16.6992 40.9974C18.3789 41.0405 19.5116 40.5392 20.4107 39.8413C20.9206 39.4455 21.1756 39.2476 21.3513 39.2248C21.5271 39.2021 21.8729 39.352 22.5644 39.6518C23.1859 39.9213 23.9076 40.0876 24.5697 40.1339C26.4923 40.2684 28.5038 40.2687 30.4303 40.1339Z" stroke="white" stroke-width="1.5" stroke-linejoin="round"/>
</svg>
