<svg width="55" height="55" viewBox="0 0 55 55" fill="none" xmlns="http://www.w3.org/2000/svg">
<circle cx="27.5" cy="27.5" r="27.5" fill="#F6B410"/>
<rect x="16.1316" y="14" width="24.8684" height="27" rx="4" stroke="black" stroke-width="1.5"/>
<path d="M25.4963 29.8501C24.6028 30.4187 22.26 31.5798 23.6869 33.0327C24.384 33.7424 25.1603 34.25 26.1363 34.25H31.7057C32.6818 34.25 33.4581 33.7424 34.1551 33.0327C35.5821 31.5798 33.2393 30.4187 32.3457 29.8501C30.2504 28.5166 27.5917 28.5166 25.4963 29.8501Z" stroke="black" stroke-width="1.5"/>
<path d="M31.7631 23.45C31.7631 24.9412 30.4907 26.15 28.921 26.15C27.3514 26.15 26.0789 24.9412 26.0789 23.45C26.0789 21.9588 27.3514 20.75 28.921 20.75C30.4907 20.75 31.7631 21.9588 31.7631 23.45Z" stroke="black" stroke-width="1.5"/>
<path d="M17.5526 19.4L14 19.4M17.5526 27.5L14 27.5M17.5526 35.6H14" stroke="black" stroke-width="1.5" stroke-linecap="round" stroke-linejoin="round"/>
</svg>
