<svg width="212" height="58" viewBox="0 0 212 58" fill="none" xmlns="http://www.w3.org/2000/svg">
<path d="M186 25L171 25" stroke="black" stroke-width="1.5" stroke-linecap="round" stroke-linejoin="round"/>
<path d="M182 20L186.293 24.2929C186.626 24.6262 186.793 24.7929 186.793 25C186.793 25.2071 186.626 25.3738 186.293 25.7071L182 30" stroke="black" stroke-width="1.5" stroke-linecap="round" stroke-linejoin="round"/>
<path d="M24.28 18.8V30H25.64V18.8H24.28ZM27.64 30C28.728 30 29.6933 29.7653 30.536 29.296C31.3787 28.8267 32.04 28.176 32.52 27.344C33 26.5013 33.24 25.52 33.24 24.4C33.24 23.28 33 22.304 32.52 21.472C32.04 20.6293 31.3787 19.9733 30.536 19.504C29.6933 19.0347 28.728 18.8 27.64 18.8H25.032V20.16H27.64C28.2693 20.16 28.8453 20.2613 29.368 20.464C29.8907 20.656 30.3387 20.9387 30.712 21.312C31.0853 21.6747 31.3733 22.1173 31.576 22.64C31.7787 23.1627 31.88 23.7493 31.88 24.4C31.88 25.0507 31.7787 25.6373 31.576 26.16C31.3733 26.6827 31.0853 27.1307 30.712 27.504C30.3387 27.8667 29.8907 28.1493 29.368 28.352C28.8453 28.544 28.2693 28.64 27.64 28.64H25.032V30H27.64ZM35.955 24.4C35.955 23.5573 36.1363 22.8053 36.499 22.144C36.8723 21.4827 37.379 20.96 38.019 20.576C38.659 20.192 39.3843 20 40.195 20C41.0163 20 41.7417 20.192 42.371 20.576C43.011 20.96 43.5123 21.4827 43.875 22.144C44.2483 22.8053 44.435 23.5573 44.435 24.4C44.435 25.2427 44.2483 25.9947 43.875 26.656C43.5123 27.3173 43.011 27.84 42.371 28.224C41.7417 28.608 41.0163 28.8 40.195 28.8C39.3843 28.8 38.659 28.608 38.019 28.224C37.379 27.84 36.8723 27.3173 36.499 26.656C36.1363 25.9947 35.955 25.2427 35.955 24.4ZM34.515 24.4C34.515 25.2107 34.6537 25.968 34.931 26.672C35.219 27.376 35.619 27.9893 36.131 28.512C36.643 29.024 37.2457 29.4293 37.939 29.728C38.6323 30.016 39.3843 30.16 40.195 30.16C41.0163 30.16 41.7683 30.016 42.451 29.728C43.1443 29.4293 43.747 29.024 44.259 28.512C44.771 27.9893 45.1657 27.376 45.443 26.672C45.731 25.968 45.875 25.2107 45.875 24.4C45.875 23.5787 45.731 22.8213 45.443 22.128C45.1657 21.424 44.771 20.816 44.259 20.304C43.747 19.7813 43.1443 19.376 42.451 19.088C41.7683 18.7893 41.0163 18.64 40.195 18.64C39.3843 18.64 38.6323 18.7893 37.939 19.088C37.2457 19.376 36.643 19.7813 36.131 20.304C35.619 20.816 35.219 21.424 34.931 22.128C34.6537 22.8213 34.515 23.5787 34.515 24.4ZM57.2793 27.04L53.9513 18.24L50.6873 27.04L47.7113 18.8H46.1913L50.5913 30.56L53.9513 21.856L57.3113 30.56L61.7113 18.8H60.1913L57.2793 27.04ZM71.635 18.8V27.136L63.155 18.24V30H64.515V21.664L72.995 30.56V18.8H71.635ZM75.5613 18.8V30H81.3213V28.72H76.9213V18.8H75.5613ZM83.08 24.4C83.08 23.5573 83.2613 22.8053 83.624 22.144C83.9973 21.4827 84.504 20.96 85.144 20.576C85.784 20.192 86.5093 20 87.32 20C88.1413 20 88.8667 20.192 89.496 20.576C90.136 20.96 90.6373 21.4827 91 22.144C91.3733 22.8053 91.56 23.5573 91.56 24.4C91.56 25.2427 91.3733 25.9947 91 26.656C90.6373 27.3173 90.136 27.84 89.496 28.224C88.8667 28.608 88.1413 28.8 87.32 28.8C86.5093 28.8 85.784 28.608 85.144 28.224C84.504 27.84 83.9973 27.3173 83.624 26.656C83.2613 25.9947 83.08 25.2427 83.08 24.4ZM81.64 24.4C81.64 25.2107 81.7787 25.968 82.056 26.672C82.344 27.376 82.744 27.9893 83.256 28.512C83.768 29.024 84.3707 29.4293 85.064 29.728C85.7573 30.016 86.5093 30.16 87.32 30.16C88.1413 30.16 88.8933 30.016 89.576 29.728C90.2693 29.4293 90.872 29.024 91.384 28.512C91.896 27.9893 92.2907 27.376 92.568 26.672C92.856 25.968 93 25.2107 93 24.4C93 23.5787 92.856 22.8213 92.568 22.128C92.2907 21.424 91.896 20.816 91.384 20.304C90.872 19.7813 90.2693 19.376 89.576 19.088C88.8933 18.7893 88.1413 18.64 87.32 18.64C86.5093 18.64 85.7573 18.7893 85.064 19.088C84.3707 19.376 83.768 19.7813 83.256 20.304C82.744 20.816 82.344 21.424 82.056 22.128C81.7787 22.8213 81.64 23.5787 81.64 24.4ZM95.5082 26.64H101.428L100.948 25.36H95.9883L95.5082 26.64ZM98.4363 21.328L100.356 25.84L100.484 26.16L102.116 30H103.636L98.4363 18.24L93.2363 30H94.7563L96.4203 26.064L96.5483 25.776L98.4363 21.328ZM104.999 18.8V30H106.359V18.8H104.999ZM108.359 30C109.447 30 110.412 29.7653 111.255 29.296C112.097 28.8267 112.759 28.176 113.239 27.344C113.719 26.5013 113.959 25.52 113.959 24.4C113.959 23.28 113.719 22.304 113.239 21.472C112.759 20.6293 112.097 19.9733 111.255 19.504C110.412 19.0347 109.447 18.8 108.359 18.8H105.751V20.16H108.359C108.988 20.16 109.564 20.2613 110.087 20.464C110.609 20.656 111.057 20.9387 111.431 21.312C111.804 21.6747 112.092 22.1173 112.295 22.64C112.497 23.1627 112.599 23.7493 112.599 24.4C112.599 25.0507 112.497 25.6373 112.295 26.16C112.092 26.6827 111.804 27.1307 111.431 27.504C111.057 27.8667 110.609 28.1493 110.087 28.352C109.564 28.544 108.988 28.64 108.359 28.64H105.751V30H108.359ZM121.471 24.4C121.471 23.5253 121.663 22.7627 122.047 22.112C122.441 21.4507 122.953 20.9333 123.583 20.56C124.212 20.1867 124.895 20 125.631 20C126.164 20 126.649 20.0693 127.087 20.208C127.535 20.3467 127.94 20.544 128.303 20.8C128.665 21.0453 128.975 21.3333 129.231 21.664V19.872C128.761 19.456 128.249 19.1467 127.695 18.944C127.14 18.7413 126.452 18.64 125.631 18.64C124.852 18.64 124.121 18.784 123.439 19.072C122.767 19.3493 122.175 19.7493 121.663 20.272C121.151 20.784 120.751 21.392 120.463 22.096C120.175 22.8 120.031 23.568 120.031 24.4C120.031 25.232 120.175 26 120.463 26.704C120.751 27.408 121.151 28.0213 121.663 28.544C122.175 29.056 122.767 29.456 123.439 29.744C124.121 30.0213 124.852 30.16 125.631 30.16C126.452 30.16 127.14 30.0587 127.695 29.856C128.249 29.6533 128.761 29.344 129.231 28.928V27.136C128.975 27.4667 128.665 27.76 128.303 28.016C127.94 28.2613 127.535 28.4533 127.087 28.592C126.649 28.7307 126.164 28.8 125.631 28.8C124.895 28.8 124.212 28.6133 123.583 28.24C122.953 27.8667 122.441 27.3493 122.047 26.688C121.663 26.0267 121.471 25.264 121.471 24.4ZM135.389 27.472L131.709 18.8H130.189L135.389 30.56L140.589 18.8H139.069L135.389 27.472Z" fill="white"/>
<rect x="1.5" y="1.5" width="202" height="47" rx="23.5" stroke="black" stroke-width="3"/>
<g filter="url(#filter0_di_39_5)">
<circle cx="179" cy="25" r="23" fill="#F6B410"/>
</g>
<path d="M189.5 24.9998L167 24.9998" stroke="black" stroke-width="1.5" stroke-linecap="round" stroke-linejoin="round"/>
<path d="M183.5 18L190.216 24.2689C190.583 24.6115 190.767 24.7827 190.767 25C190.767 25.2173 190.583 25.3885 190.216 25.7311L183.5 32" stroke="black" stroke-width="1.5" stroke-linecap="round" stroke-linejoin="round"/>
<defs>
<filter id="filter0_di_39_5" x="156" y="2" width="56" height="56" filterUnits="userSpaceOnUse" color-interpolation-filters="sRGB">
<feFlood flood-opacity="0" result="BackgroundImageFix"/>
<feColorMatrix in="SourceAlpha" type="matrix" values="0 0 0 0 0 0 0 0 0 0 0 0 0 0 0 0 0 0 127 0" result="hardAlpha"/>
<feOffset dx="5" dy="5"/>
<feGaussianBlur stdDeviation="2.5"/>
<feComposite in2="hardAlpha" operator="out"/>
<feColorMatrix type="matrix" values="0 0 0 0 0 0 0 0 0 0 0 0 0 0 0 0 0 0 0.25 0"/>
<feBlend mode="normal" in2="BackgroundImageFix" result="effect1_dropShadow_39_5"/>
<feBlend mode="normal" in="SourceGraphic" in2="effect1_dropShadow_39_5" result="shape"/>
<feColorMatrix in="SourceAlpha" type="matrix" values="0 0 0 0 0 0 0 0 0 0 0 0 0 0 0 0 0 0 127 0" result="hardAlpha"/>
<feOffset dx="6" dy="6"/>
<feGaussianBlur stdDeviation="5"/>
<feComposite in2="hardAlpha" operator="arithmetic" k2="-1" k3="1"/>
<feColorMatrix type="matrix" values="0 0 0 0 0 0 0 0 0 0 0 0 0 0 0 0 0 0 0.5 0"/>
<feBlend mode="normal" in2="shape" result="effect2_innerShadow_39_5"/>
</filter>
</defs>
</svg>
