<svg width="55" height="55" viewBox="0 0 55 55" fill="none" xmlns="http://www.w3.org/2000/svg">
<circle cx="27.5" cy="27.5" r="27.5" fill="#F6B410"/>
<path d="M23.775 30.0526H33.225M23.775 22.9474H28.5" stroke="black" stroke-width="1.5" stroke-linecap="round" stroke-linejoin="round"/>
<path d="M31.4303 39.1339C37.0774 38.7388 41.5755 33.9367 41.9457 27.9081C42.0181 26.7283 42.0181 25.5066 41.9457 24.3268C41.5755 18.2982 37.0774 13.4961 31.4303 13.101C29.5038 12.9662 27.4923 12.9665 25.5697 13.101C19.9226 13.4961 15.4245 18.2982 15.0543 24.3268C14.9819 25.5066 14.9819 26.7283 15.0543 27.9081C15.1891 30.1038 16.1116 32.1368 17.1977 33.8534C17.8283 35.0552 17.4121 36.5551 16.7553 37.8653C16.2817 38.81 16.0449 39.2823 16.235 39.6236C16.4252 39.9648 16.8498 39.9757 17.6992 39.9974C19.3789 40.0405 20.5116 39.5392 21.4107 38.8413C21.9206 38.4455 22.1756 38.2476 22.3513 38.2248C22.5271 38.2021 22.8729 38.352 23.5644 38.6518C24.1859 38.9213 24.9076 39.0876 25.5697 39.1339C27.4923 39.2684 29.5038 39.2687 31.4303 39.1339Z" stroke="black" stroke-width="1.5" stroke-linejoin="round"/>
</svg>
