<svg width="55" height="55" viewBox="0 0 55 55" fill="none" xmlns="http://www.w3.org/2000/svg">
<circle cx="27.5" cy="27.5" r="27.5" fill="#F6B410"/>
<path fill-rule="evenodd" clip-rule="evenodd" d="M28 14.1829C20.1729 14.1829 13.8333 20.5224 13.8333 28.3495C13.8333 34.6183 17.8886 39.9131 23.5198 41.7902C24.2281 41.9141 24.4938 41.4891 24.4938 41.1172C24.4938 40.7808 24.4761 39.6652 24.4761 38.4787C20.9167 39.1339 19.9958 37.611 19.7125 36.8141C19.5531 36.4068 18.8625 35.1495 18.2604 34.8131C17.7646 34.5474 17.0563 33.8922 18.2427 33.8745C19.3583 33.8568 20.1552 34.9016 20.4208 35.3266C21.6958 37.4693 23.7323 36.8672 24.5469 36.4954C24.6708 35.5745 25.0427 34.9547 25.45 34.6006C22.2979 34.2464 19.0042 33.0245 19.0042 27.6058C19.0042 26.0652 19.5531 24.7902 20.4563 23.7985C20.3146 23.4443 19.8188 21.9922 20.5979 20.0443C20.5979 20.0443 21.7844 19.6724 24.4938 21.4964C25.6271 21.1777 26.8313 21.0183 28.0354 21.0183C29.2396 21.0183 30.4438 21.1777 31.5771 21.4964C34.2865 19.6547 35.4729 20.0443 35.4729 20.0443C36.2521 21.9922 35.7563 23.4443 35.6146 23.7985C36.5177 24.7902 37.0667 26.0474 37.0667 27.6058C37.0667 33.0422 33.7552 34.2464 30.6031 34.6006C31.1167 35.0433 31.5594 35.8933 31.5594 37.2214C31.5594 39.1162 31.5417 40.6391 31.5417 41.1172C31.5417 41.4891 31.8073 41.9318 32.5156 41.7902C35.328 40.8407 37.7718 39.0333 39.5031 36.6222C41.2343 34.2111 42.1659 31.3178 42.1667 28.3495C42.1667 20.5224 35.8271 14.1829 28 14.1829Z" fill="black"/>
</svg>
