<svg width="55" height="55" viewBox="0 0 55 55" fill="none" xmlns="http://www.w3.org/2000/svg">
<circle cx="27.5" cy="27.5" r="27.5" fill="#F6B410"/>
<path d="M23.4491 41L23.1108 36.263C22.9289 33.7162 24.9459 31.55 27.4991 31.55C30.0524 31.55 32.0694 33.7162 31.8875 36.263L31.5491 41" stroke="black" stroke-width="1.5"/>
<path d="M14.4744 29.1382C13.9978 26.0369 13.7595 24.4863 14.3458 23.1117C14.9321 21.737 16.2329 20.7965 18.8345 18.9154L20.7783 17.51C24.0147 15.17 25.6329 14 27.5 14C29.3671 14 30.9853 15.17 34.2217 17.51L36.1655 18.9154C38.7671 20.7965 40.0679 21.737 40.6542 23.1117C41.2405 24.4863 41.0022 26.0369 40.5256 29.1382L40.1192 31.7827C39.4436 36.179 39.1058 38.3772 37.5291 39.6886C35.9525 41 33.6474 41 29.0374 41H25.9626C21.3525 41 19.0475 41 17.4708 39.6886C15.8942 38.3772 15.5564 36.179 14.8808 31.7827L14.4744 29.1382Z" stroke="black" stroke-width="1.5" stroke-linejoin="round"/>
</svg>
