<svg width="55" height="55" viewBox="0 0 55 55" fill="none" xmlns="http://www.w3.org/2000/svg">
<circle cx="27.5" cy="27.5" r="27.5" fill="#F6B410"/>
<path fill-rule="evenodd" clip-rule="evenodd" d="M28 15.25C24.5371 15.25 24.1036 15.2645 22.7436 15.3265C21.3862 15.3886 20.4588 15.6045 19.6479 15.9198C18.7979 16.2394 18.027 16.7409 17.3895 17.3903C16.7411 18.0271 16.2393 18.7975 15.919 19.6479C15.6053 20.4588 15.3886 21.387 15.3265 22.7445C15.2653 24.1036 15.25 24.5363 15.25 28C15.25 31.4638 15.2645 31.8964 15.3265 33.2564C15.3886 34.6139 15.6045 35.5412 15.9198 36.3521C16.2394 37.2021 16.7409 37.9731 17.3903 38.6106C18.0271 39.2589 18.7975 39.7607 19.6479 40.0811C20.4588 40.3956 21.3862 40.6115 22.7436 40.6735C24.1036 40.7356 24.5371 40.75 28 40.75C31.4629 40.75 31.8964 40.7356 33.2564 40.6735C34.6139 40.6115 35.5412 40.3956 36.3521 40.0802C37.2021 39.7606 37.9731 39.2591 38.6106 38.6097C39.2589 37.9729 39.7607 37.2025 40.0811 36.3521C40.3956 35.5412 40.6115 34.6139 40.6735 33.2564C40.7356 31.8964 40.75 31.4629 40.75 28C40.75 24.5371 40.7356 24.1036 40.6735 22.7436C40.6115 21.3862 40.3956 20.4588 40.0802 19.6479C39.7601 18.7971 39.2583 18.0264 38.6097 17.3895C37.9729 16.7411 37.2025 16.2393 36.3521 15.919C35.5412 15.6053 34.613 15.3886 33.2556 15.3265C31.8964 15.2653 31.4638 15.25 28 15.25ZM28 17.5476C31.4043 17.5476 31.808 17.5603 33.1527 17.6215C34.3954 17.6785 35.0703 17.885 35.52 18.061C36.115 18.2913 36.54 18.5684 36.9862 19.0138C37.4325 19.4601 37.7087 19.8851 37.9391 20.4801C38.1142 20.9297 38.3215 21.6046 38.3785 22.8473C38.4397 24.192 38.4525 24.5958 38.4525 28C38.4525 31.4043 38.4397 31.808 38.3785 33.1527C38.3215 34.3954 38.115 35.0703 37.9391 35.52C37.735 36.0738 37.4094 36.5748 36.9862 36.9862C36.5749 37.4095 36.0738 37.7351 35.52 37.9391C35.0703 38.1142 34.3954 38.3215 33.1527 38.3785C31.808 38.4397 31.4051 38.4525 28 38.4525C24.5949 38.4525 24.192 38.4397 22.8473 38.3785C21.6046 38.3215 20.9297 38.115 20.4801 37.9391C19.9262 37.735 19.4252 37.4094 19.0138 36.9862C18.5907 36.5748 18.2651 36.0737 18.061 35.52C17.8859 35.0703 17.6785 34.3954 17.6215 33.1527C17.5603 31.808 17.5476 31.4043 17.5476 28C17.5476 24.5958 17.5603 24.192 17.6215 22.8473C17.6785 21.6046 17.885 20.9297 18.061 20.4801C18.2913 19.8851 18.5684 19.4601 19.0138 19.0138C19.4252 18.5905 19.9262 18.2649 20.4801 18.061C20.9297 17.8859 21.6046 17.6785 22.8473 17.6215C24.192 17.5603 24.5958 17.5476 28 17.5476V17.5476Z" fill="black"/>
<path fill-rule="evenodd" clip-rule="evenodd" d="M28 32.2542C27.4413 32.2542 26.8881 32.1442 26.3719 31.9304C25.8558 31.7166 25.3868 31.4032 24.9918 31.0082C24.5967 30.6131 24.2834 30.1441 24.0696 29.628C23.8558 29.1118 23.7457 28.5586 23.7457 27.9999C23.7457 27.4413 23.8558 26.8881 24.0696 26.3719C24.2834 25.8558 24.5967 25.3868 24.9918 24.9917C25.3868 24.5967 25.8558 24.2833 26.3719 24.0695C26.8881 23.8557 27.4413 23.7457 28 23.7457C29.1283 23.7457 30.2104 24.1939 31.0082 24.9917C31.806 25.7896 32.2542 26.8716 32.2542 27.9999C32.2542 29.1282 31.806 30.2103 31.0082 31.0082C30.2104 31.806 29.1283 32.2542 28 32.2542V32.2542ZM28 21.4464C26.2619 21.4464 24.595 22.1369 23.3659 23.3659C22.1369 24.5949 21.4465 26.2618 21.4465 27.9999C21.4465 29.738 22.1369 31.405 23.3659 32.634C24.595 33.863 26.2619 34.5534 28 34.5534C29.7381 34.5534 31.405 33.863 32.634 32.634C33.863 31.405 34.5535 29.738 34.5535 27.9999C34.5535 26.2618 33.863 24.5949 32.634 23.3659C31.405 22.1369 29.7381 21.4464 28 21.4464V21.4464ZM36.46 21.3274C36.46 21.7383 36.2968 22.1323 36.0063 22.4228C35.7158 22.7134 35.3217 22.8766 34.9109 22.8766C34.5 22.8766 34.106 22.7134 33.8155 22.4228C33.525 22.1323 33.3618 21.7383 33.3618 21.3274C33.3618 20.9166 33.525 20.5226 33.8155 20.232C34.106 19.9415 34.5 19.7783 34.9109 19.7783C35.3217 19.7783 35.7158 19.9415 36.0063 20.232C36.2968 20.5226 36.46 20.9166 36.46 21.3274" fill="black"/>
</svg>
