<svg width="55" height="55" viewBox="0 0 55 55" fill="none" xmlns="http://www.w3.org/2000/svg">
<circle cx="27.5" cy="27.5" r="27.5" fill="#F6B410"/>
<path d="M42 16.0588V39.9412C42 40.4872 41.7831 41.0109 41.397 41.397C41.0109 41.7831 40.4872 42 39.9412 42H16.0588C15.5128 42 14.9891 41.7831 14.603 41.397C14.2169 41.0109 14 40.4872 14 39.9412V16.0588C14 15.5128 14.2169 14.9891 14.603 14.603C14.9891 14.2169 15.5128 14 16.0588 14H39.9412C40.4872 14 41.0109 14.2169 41.397 14.603C41.7831 14.9891 42 15.5128 42 16.0588ZM22.2353 24.7059H18.1176V37.8824H22.2353V24.7059ZM22.6059 20.1765C22.6081 19.865 22.5489 19.5562 22.4317 19.2676C22.3145 18.979 22.1416 18.7163 21.9229 18.4945C21.7042 18.2728 21.4439 18.0963 21.157 17.9751C20.87 17.8539 20.5621 17.7904 20.2506 17.7882H20.1765C19.5431 17.7882 18.9356 18.0399 18.4877 18.4877C18.0399 18.9356 17.7882 19.5431 17.7882 20.1765C17.7882 20.8099 18.0399 21.4173 18.4877 21.8652C18.9356 22.3131 19.5431 22.5647 20.1765 22.5647C20.488 22.5724 20.7979 22.5186 21.0886 22.4064C21.3793 22.2943 21.645 22.1259 21.8706 21.911C22.0963 21.6961 22.2773 21.4388 22.4035 21.1539C22.5296 20.869 22.5984 20.5621 22.6059 20.2506V20.1765ZM37.8824 29.8776C37.8824 25.9165 35.3624 24.3765 32.8588 24.3765C32.0391 24.3354 31.223 24.51 30.4918 24.8828C29.7606 25.2556 29.14 25.8136 28.6918 26.5012H28.5765V24.7059H24.7059V37.8824H28.8235V30.8741C28.764 30.1564 28.9901 29.4441 29.4527 28.8921C29.9153 28.34 30.577 27.9928 31.2941 27.9259H31.4506C32.76 27.9259 33.7318 28.7494 33.7318 30.8247V37.8824H37.8494L37.8824 29.8776Z" fill="black"/>
</svg>
