<svg width="55" height="55" viewBox="0 0 55 55" fill="none" xmlns="http://www.w3.org/2000/svg">
<circle cx="27.5" cy="27.5" r="27.5" fill="#F6B410"/>
<path d="M19.3664 30.2001C17.2442 31.3374 11.68 33.6596 15.069 36.5654C16.7245 37.9848 18.5682 39 20.8863 39H34.1137C36.4318 39 38.2755 37.9848 39.931 36.5654C43.32 33.6596 37.7558 31.3374 35.6336 30.2001C30.6572 27.5333 24.3428 27.5333 19.3664 30.2001Z" stroke="black" stroke-width="1.5" stroke-linecap="round" stroke-linejoin="round"/>
<path d="M34.25 18.075C34.25 21.4301 31.2279 24.15 27.5 24.15C23.7721 24.15 20.75 21.4301 20.75 18.075C20.75 14.7199 23.7721 12 27.5 12C31.2279 12 34.25 14.7199 34.25 18.075Z" stroke="black" stroke-width="1.5"/>
</svg>
