<svg width="55" height="55" viewBox="0 0 55 55" fill="none" xmlns="http://www.w3.org/2000/svg">
<circle cx="27.5" cy="27.5" r="27.5" fill="#F6B410"/>
<path d="M28 42C35.732 42 42 35.732 42 28C42 20.268 35.732 14 28 14C20.268 14 14 20.268 14 28C14 29.9304 14.3907 31.7696 15.0974 33.4427C15.4879 34.3674 15.6832 34.8298 15.7073 35.1792C15.7315 35.5286 15.6287 35.913 15.423 36.6817L14 42L19.3183 40.577C20.087 40.3713 20.4714 40.2685 20.8208 40.2927C21.1702 40.3168 21.6326 40.5121 22.5573 40.9026C24.2304 41.6093 26.0696 42 28 42Z" stroke="black" stroke-width="1.5" stroke-linejoin="round"/>
<path d="M23.2234 28.5283L24.4427 27.0139C24.9566 26.3756 25.5919 25.7814 25.6417 24.9316C25.6542 24.7169 25.5032 23.7532 25.2011 21.8258C25.0824 21.0683 24.3752 21 23.7627 21C22.9644 21 22.5653 21 22.1689 21.181C21.668 21.4099 21.1537 22.0532 21.0408 22.5923C20.9515 23.0187 21.0179 23.3126 21.1506 23.9004C21.7143 26.3967 23.0367 28.8622 25.0873 30.9127C27.1378 32.9633 29.6033 34.2857 32.0996 34.8494C32.6874 34.9821 32.9812 35.0485 33.4077 34.9592C33.9468 34.8463 34.5901 34.332 34.819 33.8311C35 33.4347 35 33.0356 35 32.2373C35 31.6248 34.9317 30.9176 34.1742 30.7989C32.2468 30.4968 31.2831 30.3458 31.0684 30.3583C30.2186 30.4081 29.6244 31.0434 28.9861 31.5573L27.4717 32.7766" stroke="black" stroke-width="1.5"/>
</svg>
